# xmcd
#
# Track frame offsets:
#	150
#	32450
#	55905
#	73925
#	92870
#	119697
#	144592
#	165210
#	182612
#	215107
#	241957
#	250990
#	275742
#	280697
#
# Disc length: 4228 seconds
#
# Revision: 0
# Processed by: cddbd v1.4PL0 Copyright (c) Steve Scherf et al.
# Submitted via: EasyCDDAExtractor 4.6.0.1
#
DISCID=d410820e
DTITLE=Scott Finch and Blues O' Delics - Live Groove!
DYEAR=2001
DGENRE=Blues
TTITLE0=Spoonful
TTITLE1=Hoochie Coochie Man
TTITLE2=House of the rising sun
TTITLE3=Southbound
TTITLE4=Stormy Monday
TTITLE5=Louisina Blues
TTITLE6=Tomorrow never knows
TTITLE7=Born under a bad sign
TTITLE8=Down by the river
TTITLE9=Groove king
TTITLE10=Jeff's Boogie
TTITLE11=Pie in the sky
TTITLE12=Guitar solo
TTITLE13=Voodoo Chile
EXTD=
EXTT0=
EXTT1=
EXTT2=
EXTT3=
EXTT4=
EXTT5=
EXTT6=
EXTT7=
EXTT8=
EXTT9=
EXTT10=
EXTT11=
EXTT12=
EXTT13=
PLAYORDER=
